<svg width="200" height="200" viewBox="0 0 200 200" fill="none" xmlns="http://www.w3.org/2000/svg">
<path d="M115.723 115.137C109.993 110.254 103.646 106.51 96.6797 103.906C89.7135 101.302 82.487 100 75 100C69.2708 100 63.737 100.749 58.3984 102.246C53.0599 103.743 48.0794 105.827 43.457 108.496C38.8346 111.165 34.6354 114.421 30.8594 118.262C27.0833 122.103 23.8281 126.335 21.0937 130.957C18.3594 135.579 16.2435 140.56 14.7461 145.898C13.2487 151.237 12.5 156.771 12.5 162.5H0C0 154.687 1.13932 147.168 3.41797 139.941C5.69661 132.715 8.98437 126.042 13.2812 119.922C17.5781 113.802 22.6562 108.366 28.5156 103.613C34.375 98.8607 41.0156 95.1172 48.4375 92.3828C41.0807 87.5651 35.3516 81.5104 31.25 74.2187C27.1484 66.9271 25.0651 58.8542 25 50C25 43.099 26.3021 36.6211 28.9062 30.5664C31.5104 24.5117 35.0586 19.2057 39.5508 14.6484C44.043 10.0911 49.349 6.51042 55.4687 3.90625C61.5885 1.30208 68.099 0 75 0C81.901 0 88.3789 1.30208 94.4336 3.90625C100.488 6.51042 105.794 10.0586 110.352 14.5508C114.909 19.043 118.49 24.349 121.094 30.4687C123.698 36.5885 125 43.099 125 50C125 54.2969 124.479 58.4961 123.437 62.5977C122.396 66.6992 120.833 70.5729 118.75 74.2187C116.667 77.8646 114.225 81.2174 111.426 84.2773C108.626 87.3372 105.339 90.0391 101.562 92.3828C105.794 94.0104 109.831 95.9961 113.672 98.3398C117.513 100.684 121.126 103.32 124.512 106.25L115.723 115.137ZM37.5 50C37.5 55.2083 38.4766 60.0586 40.4297 64.5508C42.3828 69.043 45.0521 73.0143 48.4375 76.4648C51.8229 79.9154 55.7943 82.6172 60.3516 84.5703C64.9089 86.5234 69.7917 87.5 75 87.5C80.1432 87.5 84.9935 86.5234 89.5508 84.5703C94.1081 82.6172 98.0794 79.9479 101.465 76.5625C104.85 73.1771 107.552 69.2057 109.57 64.6484C111.589 60.0911 112.565 55.2083 112.5 50C112.5 44.8568 111.523 40.0065 109.57 35.4492C107.617 30.8919 104.948 26.9206 101.562 23.5352C98.1771 20.1497 94.1732 17.4479 89.5508 15.4297C84.9284 13.4115 80.0781 12.4349 75 12.5C69.7917 12.5 64.9414 13.4766 60.4492 15.4297C55.957 17.3828 51.9857 20.0521 48.5352 23.4375C45.0846 26.8229 42.3828 30.8268 40.4297 35.4492C38.4766 40.0716 37.5 44.9219 37.5 50ZM168.75 75C173.047 75 177.083 75.8138 180.859 77.4414C184.635 79.069 187.923 81.3151 190.723 84.1797C193.522 87.0443 195.768 90.3646 197.461 94.1406C199.154 97.9167 200 101.953 200 106.25C200 110.547 199.186 114.583 197.559 118.359C195.931 122.135 193.685 125.456 190.82 128.32C187.956 131.185 184.635 133.431 180.859 135.059C177.083 136.686 173.047 137.5 168.75 137.5C167.253 137.5 165.788 137.402 164.355 137.207L107.031 194.531C105.273 196.289 103.255 197.624 100.977 198.535C98.6979 199.447 96.2891 199.935 93.75 200C91.1458 200 88.7044 199.512 86.4258 198.535C84.1471 197.559 82.1615 196.224 80.4687 194.531C78.776 192.839 77.4414 190.853 76.4648 188.574C75.4883 186.296 75 183.854 75 181.25C75 178.776 75.4557 176.4 76.3672 174.121C77.2786 171.842 78.6458 169.792 80.4687 167.969L137.793 110.645C137.598 109.212 137.5 107.747 137.5 106.25C137.5 101.953 138.314 97.9167 139.941 94.1406C141.569 90.3646 143.783 87.0768 146.582 84.2773C149.382 81.4779 152.702 79.2318 156.543 77.5391C160.384 75.8464 164.453 75 168.75 75ZM168.75 125C171.354 125 173.796 124.512 176.074 123.535C178.353 122.559 180.339 121.224 182.031 119.531C183.724 117.839 185.059 115.853 186.035 113.574C187.012 111.296 187.5 108.854 187.5 106.25C187.5 103.581 186.882 100.911 185.645 98.2422L171.387 112.5H162.5V103.613L176.758 89.3555C174.089 88.1185 171.419 87.5 168.75 87.5C166.146 87.5 163.704 87.9883 161.426 88.9648C159.147 89.9414 157.161 91.276 155.469 92.9687C153.776 94.6615 152.441 96.6471 151.465 98.9258C150.488 101.204 150 103.646 150 106.25C150 108.919 150.618 111.589 151.855 114.258L89.3555 176.855C88.1185 178.092 87.5 179.557 87.5 181.25C87.5 182.943 88.1185 184.408 89.3555 185.645C90.5924 186.882 92.0573 187.5 93.75 187.5C95.4427 187.5 96.9075 186.882 98.1445 185.645L160.742 123.145C163.411 124.382 166.081 125 168.75 125Z" fill="#ffffff"/>
</svg>
