<svg width="164" height="158" viewBox="0 0 164 158" fill="none" xmlns="http://www.w3.org/2000/svg">
<path d="M88.3751 41.5V73.6094L116.188 89.625C118.328 90.8818 119.888 92.9299 120.531 95.3271C121.174 97.7243 120.849 100.278 119.625 102.438C118.79 103.853 117.603 105.029 116.179 105.85C114.755 106.671 113.144 107.111 111.5 107.125C109.854 107.138 108.234 106.706 106.813 105.875L74.3126 87.125L74.0782 86.9688L73.6095 86.6563L73.297 86.4219L72.9063 86.1094L72.5157 85.7969L72.2813 85.4844L71.8907 85.0938L71.6563 84.8594L71.3438 84.3907L71.1095 84.0782L70.8751 83.6875L70.6407 83.2969L70.4845 82.9063L70.2501 82.4375C70.2501 82.2813 70.172 82.2032 70.172 82.0469C70.0848 81.9046 70.0313 81.7443 70.0157 81.5782L69.8595 81.1875C69.8595 81.0313 69.7813 80.875 69.7813 80.7188C69.7813 80.5625 69.7032 80.4063 69.7032 80.25V79.7813C69.634 79.6078 69.6072 79.4203 69.6251 79.2344V41.5C69.6251 39.0136 70.6128 36.6291 72.371 34.8709C74.1291 33.1128 76.5137 32.125 79.0001 32.125C81.4865 32.125 83.871 33.1128 85.6292 34.8709C87.3874 36.6291 88.3751 39.0136 88.3751 41.5ZM155.953 66.1094L156.422 65.9532H156.891L157.281 65.7969L157.75 65.6407L158.141 65.4844L158.531 65.25L158.922 65.0157L159.313 64.7813L159.703 64.4688L160.094 64.2344C160.34 64.0676 160.552 63.8555 160.719 63.6094H160.797L161.344 62.9063L161.656 62.5938L161.891 62.2032L162.203 61.8125L162.359 61.4219L162.594 60.9532L162.828 60.5625C162.834 60.4182 162.889 60.2802 162.984 60.1719C162.984 60.0157 163.063 59.8594 163.063 59.7032C163.063 59.5469 163.141 59.3907 163.219 59.3125C163.297 59.2344 163.297 59 163.297 58.8438C163.355 58.6676 163.382 58.4824 163.375 58.2969C163.438 58.177 163.465 58.0413 163.453 57.9063C163.453 57.5938 163.531 57.2813 163.531 56.9688V25.7188C163.531 23.2324 162.544 20.8478 160.785 19.0897C159.027 17.3315 156.643 16.3438 154.156 16.3438C151.67 16.3438 149.285 17.3315 147.527 19.0897C145.769 20.8478 144.781 23.2324 144.781 25.7188V34.3125L134.234 23.7657C123.309 12.8373 109.389 5.39429 94.2335 2.37791C79.0781 -0.638471 63.3686 0.907287 49.0917 6.81969C34.8149 12.7321 22.612 22.7456 14.0265 35.5937C5.44095 48.4418 0.858398 63.5474 0.858398 79C0.858398 94.4527 5.44095 109.558 14.0265 122.406C22.612 135.255 34.8149 145.268 49.0917 151.18C63.3686 157.093 79.0781 158.639 94.2335 155.622C109.389 152.606 123.309 145.163 134.234 134.234C135.108 133.363 135.802 132.329 136.275 131.189C136.748 130.049 136.992 128.828 136.992 127.594C136.992 126.36 136.748 125.138 136.275 123.999C135.802 122.859 135.108 121.824 134.234 120.953C132.456 119.225 130.074 118.259 127.594 118.259C125.114 118.259 122.732 119.225 120.953 120.953C112.658 129.239 102.092 134.88 90.5913 137.162C79.0907 139.445 67.1715 138.267 56.3404 133.777C45.5092 129.287 36.2523 121.686 29.7397 111.937C23.227 102.187 19.751 90.725 19.751 79C19.751 67.2751 23.227 55.8133 29.7397 46.0635C36.2523 36.3136 45.5092 28.7134 56.3404 24.2233C67.1715 19.7333 79.0907 18.5551 90.5913 20.8376C102.092 23.1201 112.658 28.7609 120.953 37.0469L131.5 47.5157H122.906C120.42 47.5157 118.035 48.5034 116.277 50.2615C114.519 52.0197 113.531 54.4043 113.531 56.8907C113.531 59.3771 114.519 61.7616 116.277 63.5198C118.035 65.2779 120.42 66.2657 122.906 66.2657H155.953V66.1094Z" fill="#FFFFFF"/>
</svg>
