<svg width="191" height="192" viewBox="0 0 191 192" fill="none" xmlns="http://www.w3.org/2000/svg">
<path d="M90.1828 125.058L143.624 178.5C148.208 182.937 154.351 185.394 160.73 185.343C167.109 185.291 173.212 182.734 177.723 178.223C182.233 173.713 184.79 167.61 184.842 161.231C184.894 154.852 182.436 148.708 177.999 144.125L124.127 90.2525M90.1828 125.058L113.063 97.2833C115.969 93.7633 119.846 91.545 124.136 90.2617C129.178 88.7583 134.797 88.5383 140.114 88.9783C147.28 89.5937 154.483 88.3244 161.008 85.2962C167.533 82.2681 173.152 77.5864 177.309 71.7157C181.465 65.8451 184.014 58.9896 184.703 51.8295C185.392 44.6694 184.196 37.4537 181.235 30.8983L151.205 60.9375C146.181 59.7757 141.584 57.2265 137.938 53.5801C134.291 49.9337 131.742 45.3367 130.58 40.3125L160.61 10.2825C154.055 7.32133 146.839 6.12582 139.679 6.8146C132.519 7.50338 125.664 10.0525 119.793 14.209C113.922 18.3656 109.241 23.985 106.212 30.5096C103.184 37.0343 101.915 44.2374 102.53 51.4042C103.364 61.2675 101.879 72.1575 94.2436 78.4458L93.3086 79.225M90.1828 125.058L47.512 176.878C45.4439 179.398 42.8709 181.458 39.9586 182.925C37.0463 184.391 33.8592 185.232 30.6025 185.392C27.3458 185.552 24.0916 185.029 21.0494 183.855C18.0071 182.682 15.2443 180.885 12.9387 178.579C10.633 176.274 8.83569 173.511 7.66234 170.468C6.48898 167.426 5.96561 164.172 6.1259 160.915C6.28619 157.659 7.12659 154.472 8.59302 151.559C10.0595 148.647 12.1194 146.074 14.6403 144.006L77.3128 92.3975L39.6653 54.75H26.7495L6.12449 20.375L19.8745 6.625L54.2495 27.25V40.1658L93.2995 79.2158L77.3037 92.3883M153.937 154.438L129.874 130.375M30.1137 161.313H30.187V161.386H30.1137V161.313Z" stroke="white" stroke-width="12" stroke-linecap="round" stroke-linejoin="round"/>
</svg>
