<svg width="164" height="162" viewBox="0 0 164 162" fill="none" xmlns="http://www.w3.org/2000/svg">
<path d="M67.0802 2.47615C74.0832 -0.363145 81.9168 -0.363145 88.9198 2.47615L147.029 26.0362C149.532 27.05 151.676 28.788 153.185 31.0275C154.694 33.2671 155.5 35.9061 155.5 38.6067V82.2779C152.041 78.9582 148.126 76.1478 143.875 73.9311V43.2411L83.8125 66.4292V84.2386C78.3694 90.0549 74.3851 97.0806 72.1875 104.737V66.4214L12.125 43.0629V113.417C12.126 113.802 12.2415 114.178 12.4568 114.497C12.6722 114.815 12.9775 115.063 13.334 115.208L71.4512 138.768C71.6915 138.868 71.9395 138.961 72.1875 139.047L73.6523 139.636C74.1095 139.822 74.5667 139.977 75.0395 140.101C76.9615 144.177 79.4182 147.959 82.3245 151.346C77.1731 152.121 71.908 151.497 67.0802 149.54L8.97075 125.98C6.46775 124.966 4.32442 123.228 2.8153 120.989C1.30617 118.749 0.499984 116.11 0.5 113.41V38.6144C0.499984 35.9139 1.30617 33.2748 2.8153 31.0353C4.32442 28.7958 6.46775 27.0578 8.97075 26.0439L67.0802 2.47615ZM84.5488 13.2487C80.3488 11.5468 75.6512 11.5468 71.4512 13.2487L56.61 19.2704L114.944 41.9547L135.637 33.9722L84.541 13.2564L84.5488 13.2487ZM20.5725 33.8714L78.0078 56.2146L98.8552 48.1546L40.924 25.6254L20.5725 33.8714ZM120.625 76.0082C109.32 76.0082 98.4783 80.499 90.4846 88.4927C82.4908 96.4865 78 107.328 78 118.633C78 129.938 82.4908 140.78 90.4846 148.774C98.4783 156.767 109.32 161.258 120.625 161.258C131.93 161.258 142.772 156.767 150.765 148.774C158.759 140.78 163.25 129.938 163.25 118.633C163.25 107.328 158.759 96.4865 150.765 88.4927C142.772 80.499 131.93 76.0082 120.625 76.0082ZM93.5155 118.308L93.6318 117.641L93.7868 117.153L94.058 116.634L94.306 116.262L114.007 96.5146L114.549 96.0729C115.295 95.5625 116.196 95.3289 117.096 95.4125C117.996 95.4961 118.838 95.8917 119.477 96.5309C120.116 97.17 120.512 98.0124 120.596 98.9124C120.679 99.8123 120.446 100.713 119.935 101.459L119.493 102.002L106.722 114.766L147.75 114.758L148.447 114.82C149.222 114.962 149.935 115.335 150.491 115.892C151.048 116.449 151.422 117.161 151.563 117.936L151.625 118.633L151.563 119.331C151.422 120.105 151.048 120.818 150.491 121.374C149.935 121.931 149.222 122.305 148.447 122.446L147.75 122.5L106.737 122.508L119.493 135.257L119.935 135.799C120.382 136.447 120.621 137.214 120.621 138C120.621 138.787 120.382 139.554 119.935 140.201L119.493 140.744L118.951 141.186C118.304 141.632 117.536 141.871 116.75 141.871C115.964 141.871 115.196 141.632 114.549 141.186L114.007 140.744L94.5385 121.268L94.1898 120.834L93.8643 120.261L93.6318 119.617L93.5387 119.152L93.5 118.718L93.5155 118.308Z" fill="#FFFFFF"/>
</svg>
